<?xml version="1.0" standalone="no"?>
<!DOCTYPE svg PUBLIC "-//W3C//DTD SVG 20010904//EN"
 "http://www.w3.org/TR/2001/REC-SVG-20010904/DTD/svg10.dtd">
<svg version="1.0" xmlns="http://www.w3.org/2000/svg"
 width="1584.000000pt" height="672.000000pt" viewBox="0 0 1584.000000 672.000000"
 preserveAspectRatio="xMidYMid meet">

<g transform="translate(0.000000,672.000000) scale(0.100000,-0.100000)"
fill="#000000" stroke="none">
<path d="M8837 5950 c-3 -11 -15 -24 -27 -28 -21 -8 -21 -8 4 -20 14 -6 26
-18 26 -27 0 -8 5 -15 10 -15 6 0 10 7 10 15 0 9 12 21 26 27 25 12 25 12 4
20 -12 4 -24 17 -27 28 -3 11 -9 20 -13 20 -4 0 -10 -9 -13 -20z"/>
<path d="M8452 5900 c-12 -30 -40 -56 -67 -62 -18 -4 -18 -6 5 -15 28 -12 54
-39 64 -68 7 -18 9 -16 22 13 9 21 25 38 44 45 34 13 40 27 12 27 -22 0 -47
25 -60 60 l-10 25 -10 -25z"/>
<path d="M8711 5710 c-16 -61 -55 -103 -113 -122 l-42 -14 57 -27 c60 -27 92
-66 103 -124 9 -45 19 -41 34 12 17 61 57 102 114 117 25 7 46 15 46 18 0 3
-22 13 -49 23 -59 21 -97 63 -113 123 -7 24 -15 44 -18 44 -4 0 -12 -23 -19
-50z"/>
<path d="M7790 5674 c-232 -44 -411 -161 -489 -318 -34 -69 -52 -178 -32 -190
20 -13 1309 -12 1322 1 19 19 1 117 -37 192 -65 130 -225 250 -399 297 -59 16
-309 28 -365 18z"/>
<path d="M8882 5282 c-8 -22 -21 -37 -41 -45 l-30 -11 30 -18 c16 -10 35 -29
41 -43 l11 -25 19 30 c10 17 30 35 46 41 l27 11 -32 14 c-21 9 -38 26 -46 46
l-13 33 -12 -33z"/>
<path d="M7893 5090 c-17 -4 -48 -17 -68 -29 -47 -27 -75 -27 -133 4 -30 16
-63 25 -92 25 -29 0 -62 -9 -92 -25 -60 -32 -88 -31 -144 1 -37 22 -54 26 -95
22 -28 -3 -58 -13 -69 -23 -44 -40 -9 -84 50 -64 28 10 38 8 91 -20 75 -39
117 -39 189 -1 30 17 62 30 71 30 9 0 41 -13 72 -30 73 -39 117 -39 182 0 28
16 59 30 70 30 11 0 47 -14 80 -30 75 -38 106 -38 175 0 69 37 88 37 153 0 60
-34 107 -38 152 -14 84 46 84 46 119 34 74 -24 104 40 35 75 -42 22 -98 18
-151 -10 -59 -31 -76 -31 -141 2 -68 34 -120 34 -186 0 -62 -33 -81 -33 -134
-3 -50 28 -90 36 -134 26z"/>
<path d="M6926 5062 c-4 -12 -19 -29 -34 -37 -20 -11 -23 -14 -9 -15 10 0 25
-13 35 -29 16 -28 16 -29 27 -8 6 12 21 27 34 33 23 12 23 12 2 19 -12 3 -27
18 -35 33 -13 25 -14 25 -20 4z"/>
<path d="M7263 4889 c-35 -13 -63 -58 -63 -101 0 -30 7 -46 29 -69 l29 -29
354 0 c200 0 368 -4 388 -10 19 -5 68 -37 108 -69 40 -33 81 -63 93 -66 24 -8
55 11 120 72 62 57 103 73 194 73 88 0 118 15 135 66 23 70 -15 131 -88 141
-63 8 -142 -20 -224 -83 -97 -74 -123 -87 -147 -75 -10 6 -50 36 -87 67 -38
31 -83 62 -99 69 -34 15 -706 28 -742 14z"/>
<path d="M6997 4813 c-4 -3 -7 -14 -7 -24 0 -28 -48 -77 -83 -85 l-32 -7 43
-18 c35 -15 47 -28 64 -66 l21 -48 10 30 c13 42 44 72 86 86 l36 12 -40 14
c-49 17 -63 30 -79 77 -7 20 -16 33 -19 29z"/>
<path d="M5734 4635 c-83 -19 -147 -44 -248 -99 -170 -93 -318 -234 -506 -486
-117 -156 -134 -174 -96 -105 l27 50 -26 -30 c-28 -33 -136 -247 -216 -428
-28 -64 -55 -120 -59 -122 -4 -3 -27 39 -50 93 -81 188 -154 333 -171 343 -37
20 -286 2 -316 -23 -25 -21 7 -106 147 -393 54 -110 115 -240 135 -289 l36
-88 -17 -54 c-9 -30 -88 -199 -175 -376 -177 -360 -184 -380 -121 -397 51 -15
255 -14 287 1 29 13 48 50 139 278 37 91 71 172 76 180 13 21 21 9 65 -95 180
-429 372 -681 693 -912 223 -160 550 -292 872 -353 134 -25 346 -41 475 -35
74 3 90 2 60 -5 -54 -12 -389 -12 -500 0 -483 54 -916 246 -1239 549 -56 52
-58 53 -31 16 127 -176 353 -356 603 -480 339 -168 801 -256 1192 -225 262 20
540 79 822 176 369 127 584 241 1128 599 160 105 668 405 686 405 3 0 4 -12 2
-26 -2 -21 -25 -40 -115 -98 -132 -84 -367 -246 -555 -382 -170 -124 -203
-154 -68 -63 30 20 109 68 175 107 66 38 210 122 319 186 264 155 272 159 296
146 25 -14 193 -2 237 16 34 13 41 29 45 103 3 44 3 44 88 92 47 27 90 49 95
49 6 0 25 -45 44 -99 53 -152 44 -146 204 -145 110 0 139 3 161 17 14 10 26
23 26 29 0 6 -27 81 -61 166 -33 85 -57 158 -52 163 17 16 177 79 183 72 4 -4
14 -37 24 -73 36 -135 131 -273 234 -338 107 -68 241 -89 367 -57 203 52 321
267 333 602 l4 142 44 7 c82 12 78 26 72 -264 -7 -299 0 -424 23 -447 28 -29
78 -32 393 -24 269 7 311 10 327 25 17 15 19 32 19 134 0 159 13 150 -221 150
-101 0 -190 4 -198 9 -12 8 -13 40 -7 187 3 98 10 182 14 186 5 5 66 11 138
14 71 4 134 10 139 14 6 4 67 -4 138 -19 l127 -26 0 -321 c0 -292 2 -324 18
-343 16 -20 27 -21 134 -22 113 0 151 8 171 35 4 6 5 129 1 274 -3 144 -3 262
0 262 4 0 29 -9 56 -21 47 -20 50 -23 76 -97 112 -312 146 -398 163 -416 17
-16 37 -21 110 -24 111 -5 173 3 203 28 l23 19 -29 83 c-16 46 -51 141 -77
212 -27 71 -47 131 -45 134 8 7 267 -190 338 -259 70 -67 75 -63 30 26 -75
150 -196 282 -376 409 -53 38 -101 77 -107 88 -9 17 -1 30 60 93 118 122 156
227 149 419 -3 99 -7 118 -34 176 -43 91 -84 134 -167 175 -131 64 -276 78
-507 50 -169 -21 -170 -22 -170 -138 0 -50 -3 -196 -7 -324 l-6 -231 -46 14
c-90 27 -278 60 -453 79 l-56 6 5 57 c3 31 7 58 8 60 3 4 319 -43 415 -62 41
-8 76 -13 78 -11 12 11 -292 89 -410 106 l-88 12 0 44 c0 84 -3 83 196 83 172
0 175 0 199 25 23 22 25 31 25 128 0 137 -7 146 -110 154 -129 10 -607 -7
-627 -22 -16 -12 -19 -36 -24 -194 -3 -99 -7 -182 -10 -184 -2 -3 -49 -7 -104
-11 -71 -4 -95 -3 -82 5 22 13 22 54 1 127 -38 132 -102 215 -202 264 -64 32
-72 33 -182 33 -109 0 -119 -2 -183 -32 -82 -39 -167 -117 -214 -197 -43 -74
-88 -206 -105 -311 l-14 -80 -64 -27 c-89 -36 -91 -36 -72 15 11 30 16 79 16
172 0 147 -14 199 -79 287 -78 106 -205 159 -395 166 -135 4 -322 -10 -363
-29 -39 -18 -47 -57 -47 -224 0 -83 -3 -307 -7 -498 l-6 -346 -72 -45 c-40
-25 -74 -46 -76 -46 -2 0 -4 246 -4 548 0 301 -3 559 -8 574 -4 15 -17 30 -30
34 -31 10 -184 5 -230 -7 -68 -18 -71 -30 -62 -277 12 -348 8 -755 -9 -848
-22 -127 -65 -194 -126 -194 -31 0 -85 32 -99 59 -50 93 -65 363 -50 875 l12
380 -24 19 c-22 18 -34 19 -142 13 -65 -3 -126 -10 -136 -16 -10 -5 -21 -22
-25 -37 -13 -58 -19 -887 -7 -1058 12 -182 22 -236 66 -333 26 -59 92 -132
155 -173 14 -9 23 -19 20 -21 -21 -18 -505 -288 -625 -348 -514 -261 -1012
-377 -1465 -341 -329 26 -656 126 -870 265 -73 47 -59 45 32 -4 223 -120 594
-202 913 -202 457 0 913 134 1353 399 107 65 282 189 282 200 0 3 -10 -2 -22
-11 -40 -28 -181 -113 -225 -135 -85 -42 -353 -150 -513 -205 -326 -113 -511
-143 -825 -133 -323 11 -589 74 -846 201 -339 169 -560 400 -754 787 -95 188
-96 193 -96 349 -1 131 -1 134 -16 100 -25 -55 -20 -161 12 -255 36 -108 164
-356 253 -490 66 -100 68 -106 28 -62 -115 123 -356 604 -356 711 0 12 53 134
119 271 65 138 135 290 155 338 54 131 102 223 163 312 30 44 44 70 31 58 -13
-13 -28 -23 -31 -23 -15 0 32 69 147 219 6 8 -9 2 -34 -14 -43 -27 -44 -27
-22 -3 34 38 26 42 -20 10 -52 -36 -156 -143 -227 -234 -29 -38 -55 -68 -58
-68 -3 0 7 21 22 48 90 156 255 317 480 469 83 56 211 119 335 165 l105 39
-65 -5 c-36 -3 -87 -8 -115 -11 l-50 -5 35 14 c43 18 24 18 -56 1z m4170
-1053 c68 -40 99 -131 78 -232 -21 -101 -110 -187 -197 -193 l-40 -2 -3 218
-2 217 22 10 c31 13 105 4 142 -18z m2995 -2 c57 -29 85 -85 84 -171 0 -82
-26 -141 -87 -197 -42 -39 -96 -62 -143 -62 l-23 0 0 220 c0 198 2 220 18 230
24 15 103 5 151 -20z m-1933 -9 c23 -14 38 -36 53 -76 12 -30 21 -59 21 -64 0
-5 -53 -19 -117 -31 -65 -12 -124 -25 -132 -28 -36 -14 24 142 71 184 41 38
62 41 104 15z m542 -188 c-2 -14 -15 -19 -53 -21 -208 -10 -452 -43 -607 -83
-93 -23 -88 -23 -88 1 0 19 4 21 118 49 31 8 314 53 407 64 17 2 74 5 128 6
89 1 98 -1 95 -16z m2 -78 c0 -24 -2 -25 -67 -25 -92 0 -270 -17 -373 -36 -96
-18 -275 -59 -303 -70 -15 -6 -18 -3 -15 16 4 28 4 28 233 75 231 46 345 63
443 64 81 1 82 1 82 -24z m-1090 -128 c0 -13 -210 -99 -219 -90 -12 9 32 35
114 67 104 40 105 40 105 23z m-12 -83 c-2 -10 -56 -36 -157 -75 -85 -32 -157
-56 -160 -54 -8 8 30 32 84 54 28 11 88 36 135 55 97 41 103 42 98 20z m1092
-49 c0 -12 -13 -15 -55 -15 -30 0 -58 0 -62 -1 -4 0 -9 4 -11 10 -2 5 18 12
45 14 26 2 56 4 66 5 9 1 17 -5 17 -13z m868 -46 c26 -9 32 -16 32 -38 l0 -28
-62 13 c-35 7 -88 18 -119 24 -52 10 -57 13 -61 41 -3 16 -3 31 -1 33 5 4 163
-29 211 -45z m-1490 -36 c-3 -16 -28 -27 -111 -47 -24 -6 -28 -4 -25 11 2 11
22 23 58 34 72 22 82 22 78 2z m1377 -13 c25 -11 -1 -11 -35 0 -20 6 -21 8 -5
8 11 0 29 -3 40 -8z m28 -27 c-7 -2 -19 -2 -25 0 -7 3 -2 5 12 5 14 0 19 -2
13 -5z m-1403 -23 c0 -9 -41 -23 -108 -36 -59 -12 -33 12 31 28 79 20 77 20
77 8z m-1090 -58 c0 -5 -11 -14 -25 -20 -29 -13 -33 -5 -7 14 20 15 32 18 32
6z m2994 -14 c23 -33 20 -37 -19 -25 -23 7 -35 16 -35 29 0 26 35 23 54 -4z
m-2366 -9 c-3 -10 -208 -99 -228 -99 -32 0 3 23 98 63 110 48 136 55 130 36z
m584 -39 c91 0 92 -2 78 -103 -13 -92 -50 -156 -102 -175 -52 -20 -85 -9 -139
47 -47 49 -72 104 -85 187 l-6 41 68 20 c67 19 70 19 90 1 16 -14 37 -18 96
-18z m-582 -17 c0 -5 -43 -26 -96 -48 -120 -50 -122 -51 -108 -36 10 11 180
89 197 90 4 1 7 -2 7 -6z m-1010 -110 c0 -8 -44 -37 -134 -89 -80 -46 -47 -8
39 45 82 51 95 57 95 44z m480 -70 c0 -7 -133 -83 -145 -83 -21 0 5 24 58 54
61 35 87 43 87 29z m-40 -77 c0 -8 -92 -58 -97 -53 -3 3 17 17 44 31 53 28 53
28 53 22z m-3550 -821 c69 -13 111 -24 94 -24 -41 -1 -206 27 -258 45 l-41 14
40 -6 c22 -4 96 -17 165 -29z"/>
<path d="M7267 4604 c-13 -13 -7 -69 12 -110 21 -45 67 -85 120 -103 45 -15
1009 -15 1064 0 76 21 144 113 135 185 l-3 29 -101 3 -102 3 -68 -56 c-90 -72
-105 -76 -157 -37 -23 18 -60 44 -81 59 l-40 28 -386 3 c-212 1 -389 0 -393
-4z"/>
<path d="M2683 3862 c-74 -11 -118 -23 -130 -34 -15 -16 -17 -79 -21 -800 -5
-929 -22 -830 141 -836 116 -5 170 7 188 40 8 15 9 100 4 288 l-7 267 88 17
c344 69 504 250 504 571 0 250 -105 409 -315 475 -97 31 -297 36 -452 12z
m341 -285 c82 -46 119 -191 81 -308 -31 -93 -120 -159 -214 -159 l-31 0 0 138
c0 77 3 187 7 245 l6 107 56 0 c39 0 68 -7 95 -23z"/>
<path d="M7530 3873 c-208 -20 -275 -32 -293 -54 -17 -21 -18 -61 -15 -791 3
-764 3 -768 24 -788 30 -30 77 -38 254 -46 181 -7 307 9 430 57 184 72 266
187 277 389 6 102 -8 173 -49 254 -26 51 -117 147 -163 172 -19 10 -35 21 -35
24 0 3 16 16 36 30 109 74 171 252 145 419 -27 170 -137 281 -316 319 -59 13
-231 22 -295 15z m210 -303 c108 -55 120 -201 24 -297 -43 -42 -116 -73 -175
-73 -23 0 -27 5 -33 38 -8 48 -8 165 1 269 4 63 10 83 22 87 31 9 123 -4 161
-24z m16 -691 c26 -13 61 -41 78 -62 26 -32 31 -48 34 -105 3 -45 -1 -80 -11
-104 -27 -64 -115 -112 -230 -124 l-64 -6 -6 143 c-9 189 -9 274 1 283 15 17
150 -1 198 -25z"/>
<path d="M3668 3861 c-101 -11 -93 41 -94 -619 -2 -657 8 -988 28 -1008 16
-16 35 -18 169 -16 73 2 111 6 125 16 18 14 19 31 19 513 0 274 4 627 9 784
l9 287 -26 26 c-24 24 -32 26 -104 25 -43 -1 -104 -5 -135 -8z"/>
<path d="M5362 3863 c-80 -8 -76 47 -70 -821 4 -571 8 -774 17 -791 19 -35 53
-42 178 -34 96 5 120 10 136 26 18 18 19 32 13 421 -4 220 -3 568 2 771 9 397
7 416 -40 429 -24 6 -161 5 -236 -1z"/>
<path d="M5988 3861 c-103 -5 -141 -10 -152 -21 -13 -12 -17 -92 -27 -470 -6
-250 -10 -603 -8 -783 l4 -329 30 -25 29 -26 333 5 c305 4 334 6 353 23 18 16
20 30 20 129 0 165 13 156 -224 156 -143 0 -196 3 -204 13 -12 14 -4 348 9
368 6 10 48 15 142 19 178 7 177 6 177 145 0 150 1 149 -182 155 l-143 5 0
151 c0 113 3 155 14 167 11 15 38 17 183 17 164 0 201 6 220 34 4 6 8 64 8
129 l0 118 -35 15 c-36 15 -248 17 -547 5z"/>
</g>
</svg>
